<?xml version="1.0" standalone="no"?>
<!DOCTYPE svg PUBLIC "-//W3C//DTD SVG 20010904//EN"
 "http://www.w3.org/TR/2001/REC-SVG-20010904/DTD/svg10.dtd">
<svg version="1.0" xmlns="http://www.w3.org/2000/svg"
 width="300.000000pt" height="300.000000pt" viewBox="0 0 300.000000 300.000000"
 preserveAspectRatio="xMidYMid meet">
<metadata>
Created by potrace 1.11, written by Peter Selinger 2001-2013
</metadata>
<g transform="translate(0.000000,300.000000) scale(0.100000,-0.100000)"
fill="#000000" stroke="none">
<path d="M2175 2100 l65 -130 -260 0 -260 0 0 -90 0 -90 260 0 260 0 -65 -130
-65 -130 345 172 c190 95 345 175 345 178 0 3 -155 83 -345 178 l-345 172 65
-130z"/>
<path d="M1492 2194 l-22 -15 0 -688 c0 -654 1 -689 18 -704 24 -22 45 -21 65
1 16 17 17 80 17 705 l0 686 -22 15 c-12 9 -25 16 -28 16 -3 0 -16 -7 -28 -16z"/>
<path d="M285 1956 c-42 -18 -59 -58 -45 -102 22 -65 14 -64 575 -64 l505 0 0
90 0 90 -502 0 c-394 -1 -510 -4 -533 -14z"/>
<path d="M603 1277 c-189 -95 -343 -174 -343 -177 0 -3 155 -83 345 -178 l345
-172 -65 130 -65 130 250 0 250 0 0 90 0 90 -250 0 -250 0 65 130 c36 72 64
130 63 129 -2 0 -157 -77 -345 -172z"/>
<path d="M1720 1100 l0 -90 485 0 c540 0 533 -1 555 64 15 46 -6 89 -51 105
-22 7 -186 11 -510 11 l-479 0 0 -90z"/>
</g>
</svg>
